# xmcd CD database file
#
# Track frame offsets:
#	150
#	28643
#	56752
#	82640
#	111440
#	136477
#	171286
#	199514
#	227447
#
# Disc length: 3433 seconds
#
# Revision: 0
# Processed by: cddbd v1.5.2PL0 Copyright (c) Steve Scherf et al.
# Submitted via: CDex 1.51
#
DISCID=6d0d6709
DTITLE=Sebastien Jarrousse Quartet - Wait And See
DYEAR=2010
DGENRE=Jazz
TTITLE0=Wait And See
TTITLE1=Cartoons
TTITLE2=Valse Dombre
TTITLE3=Lost
TTITLE4=Starting Blocks
TTITLE5=Ballade A Hauteville
TTITLE6=La Faille
TTITLE7=For Wayne
TTITLE8=Impermanence
EXTD=YEAR: 2010
EXTT0=
EXTT1=
EXTT2=
EXTT3=
EXTT4=
EXTT5=
EXTT6=
EXTT7=
EXTT8=
PLAYORDER=
